<?xml version="1.0" standalone="no"?>
<!DOCTYPE svg PUBLIC "-//W3C//DTD SVG 20010904//EN"
 "http://www.w3.org/TR/2001/REC-SVG-20010904/DTD/svg10.dtd">
<svg version="1.0" xmlns="http://www.w3.org/2000/svg"
 width="1046.000000pt" height="1280.000000pt" viewBox="0 0 1046.000000 1280.000000"
 preserveAspectRatio="xMidYMid meet">
<metadata>
Created by potrace 1.15, written by Peter Selinger 2001-2017
</metadata>
<g transform="translate(0.000000,1280.000000) scale(0.100000,-0.100000)"
fill="#000000" stroke="none">
<path d="M6125 12741 c-387 -139 -597 -254 -908 -495 -233 -181 -331 -236
-422 -236 -17 0 -69 11 -115 24 -115 33 -387 82 -540 97 -236 22 -573 0 -849
-56 -161 -33 -227 -39 -285 -25 -32 7 -108 48 -220 117 -381 238 -783 418
-1165 522 l-74 20 7 -87 c47 -605 193 -1137 396 -1443 l40 -60 -25 -65 c-38
-101 -93 -307 -116 -439 -18 -97 -22 -161 -23 -330 0 -213 11 -317 49 -441 26
-86 51 -79 -277 -76 -331 4 -697 -10 -1025 -38 -215 -19 -564 -59 -572 -66 -2
-2 -1 -9 2 -17 4 -11 27 -10 138 4 476 63 1214 101 1600 84 l167 -7 36 -87
c20 -47 55 -121 80 -163 l43 -77 -36 -5 c-20 -3 -92 -13 -161 -21 -513 -65
-1082 -183 -1506 -315 -194 -59 -234 -76 -234 -95 0 -8 1 -15 3 -15 2 0 57 18
122 40 266 90 566 168 900 234 276 55 413 76 891 141 l41 6 58 -77 c31 -42 88
-109 126 -149 l69 -72 -118 -43 c-265 -97 -648 -277 -882 -415 -179 -105 -370
-235 -370 -251 0 -8 4 -14 9 -14 4 0 69 40 142 89 339 225 742 426 1156 577
l93 33 93 -94 c214 -215 287 -380 287 -652 0 -260 -53 -544 -204 -1093 -70
-254 -124 -480 -156 -652 -157 -835 -108 -1553 159 -2358 89 -266 155 -431
312 -782 274 -611 310 -727 354 -1146 22 -205 36 -683 33 -1072 l-3 -345 -88
-7 c-109 -8 -232 -32 -290 -57 -66 -28 -111 -73 -143 -143 -26 -56 -29 -74
-29 -158 0 -74 4 -103 19 -129 67 -123 257 -196 611 -235 1310 -143 2603 -163
3865 -61 684 56 1558 169 1680 218 349 141 670 737 925 1721 185 712 354 1713
371 2201 24 650 -166 1275 -569 1880 -207 310 -356 484 -807 940 -477 483
-631 662 -805 935 -143 224 -273 537 -311 747 -35 198 -28 460 18 673 47 221
145 445 262 601 203 269 554 486 916 565 66 15 125 19 260 18 157 0 185 -3
274 -27 228 -61 359 -160 386 -292 26 -124 -55 -283 -190 -373 -135 -91 -278
-109 -464 -59 -131 35 -183 41 -236 27 -75 -19 -115 -52 -150 -124 -30 -61
-32 -71 -28 -144 6 -97 36 -158 119 -238 71 -67 209 -135 321 -158 99 -20 253
-20 358 0 267 50 581 244 737 454 209 281 260 673 133 1013 -70 186 -311 431
-525 533 -206 98 -593 140 -925 99 -549 -68 -1041 -298 -1400 -654 -243 -242
-405 -492 -496 -769 l-37 -113 -56 6 c-135 13 -486 25 -753 25 -271 0 -289 1
-284 18 44 150 60 274 60 457 0 244 -33 410 -129 650 l-44 109 49 66 c252 342
406 715 456 1103 22 176 12 628 -15 627 -3 -1 -78 -27 -166 -59z m709 -3021
c88 -6 161 -11 162 -13 1 -1 -6 -42 -17 -92 -25 -119 -49 -305 -49 -377 0 -32
-3 -58 -6 -58 -3 0 -63 13 -132 29 -251 58 -593 119 -872 156 -69 9 -135 18
-147 21 -21 4 -20 8 32 117 29 61 61 138 71 169 18 53 21 57 54 62 57 7 732
-3 904 -14z m-604 -436 c173 -28 390 -71 666 -131 20 -5 21 -13 28 -166 27
-621 177 -1043 583 -1650 253 -378 580 -768 1023 -1222 273 -279 343 -357 438
-484 238 -315 387 -652 453 -1019 72 -406 36 -1045 -97 -1712 -160 -804 -476
-1596 -709 -1772 -91 -69 -196 -83 -285 -38 -126 65 -154 220 -111 605 12 105
37 318 56 475 62 523 75 690 75 955 0 641 -136 1169 -474 1844 -344 687 -592
1023 -1179 1597 -293 287 -426 407 -721 653 -143 120 -297 251 -340 292 -240
224 -359 512 -373 899 -4 114 -2 159 11 210 21 86 73 186 148 288 54 75 64 83
87 79 46 -10 341 -136 516 -222 207 -101 374 -196 564 -322 107 -71 146 -92
154 -84 8 8 8 14 2 19 -364 252 -809 488 -1172 621 -40 15 -60 27 -56 35 4 6
41 61 84 121 42 61 88 131 103 156 l26 46 143 -19 c78 -10 239 -34 357 -54z"/>
</g>
</svg>
